<?xml version="1.0" encoding="UTF-8"?>
<svg version="1.1" xmlns="http://www.w3.org/2000/svg" width="65" height="66">
<path d="M0 0 C21.45 0 42.9 0 65 0 C65 21.78 65 43.56 65 66 C43.55 66 22.1 66 0 66 C0 44.22 0 22.44 0 0 Z " fill="#363636" transform="translate(0,0)"/>
<path d="M0 0 C21.45 0 42.9 0 65 0 C65 21.78 65 43.56 65 66 C43.55 66 22.1 66 0 66 C0 44.22 0 22.44 0 0 Z M11 15 C6.04231936 22.61789952 4.14147703 28.8901174 5 38 C6.84776471 45.02953965 9.96112668 51.37865012 16.21484375 55.4375 C23.90876059 59.82689826 30.93415192 61.59445149 39.734375 59.28125 C48.42914279 56.01412513 53.08428471 51.68459762 57.01953125 43.3046875 C59.60316499 37.2316042 60.11289593 30.8890874 58.28125 24.48828125 C54.5765676 15.68966054 49.88085261 11.16612284 41.2578125 7.140625 C30.02629946 3.20824873 19.16695205 6.64743541 11 15 Z " fill="#FDFDFD" transform="translate(0,0)"/>
<path d="M0 0 C1.32 0 2.64 0 4 0 C4.66 1.65 5.32 3.3 6 5 C6.66 3.35 7.32 1.7 8 0 C9.32 0 10.64 0 12 0 C11.46148032 5.27749285 10.22656164 9.25645564 8 14 C6.35 14 4.7 14 3 14 C-0.44419134 4.58997722 -0.44419134 4.58997722 0 0 Z " fill="#E5E5E5" transform="translate(32,27)"/>
<path d="M0 0 C2.8125 1.0625 2.8125 1.0625 4.1875 3.125 C4.39375 3.764375 4.6 4.40375 4.8125 5.0625 C2.1725 4.7325 -0.4675 4.4025 -3.1875 4.0625 C-2.8575 6.3725 -2.5275 8.6825 -2.1875 11.0625 C-0.2075 10.7325 1.7725 10.4025 3.8125 10.0625 C3.8125 11.3825 3.8125 12.7025 3.8125 14.0625 C0.97166359 15.48291821 -1.04227278 15.37702272 -4.1875 15.0625 C-7.24373277 12.97139337 -8.05213014 11.76943151 -8.75 8.125 C-7.80820766 2.99746395 -5.3318691 0.10454645 0 0 Z " fill="#E5E5E5" transform="translate(26.1875,25.9375)"/>
<path d="M0 0 C1.32 0 2.64 0 4 0 C3.25 6.625 3.25 6.625 1 10 C0.67 9.01 0.34 8.02 0 7 C-0.99 7.33 -1.98 7.66 -3 8 C-1.125 2.25 -1.125 2.25 0 0 Z " fill="#D6D6D6" transform="translate(40,27)"/>
</svg>
